<svg width="23" height="22" viewBox="0 0 23 22" fill="none" xmlns="http://www.w3.org/2000/svg">
<path d="M0.264893 2.59631C0.264893 2.1681 0.408629 1.75743 0.664482 1.45464C0.920336 1.15186 1.26735 0.98175 1.62918 0.98175H20.7292C21.091 0.98175 21.438 1.15186 21.6939 1.45464C21.9497 1.75743 22.0935 2.1681 22.0935 2.59631C22.0935 3.02452 21.9497 3.43519 21.6939 3.73798C21.438 4.04076 21.091 4.21087 20.7292 4.21087H1.62918C1.26735 4.21087 0.920336 4.04076 0.664482 3.73798C0.408629 3.43519 0.264893 3.02452 0.264893 2.59631ZM0.264893 11.2073C0.264893 10.7791 0.408629 10.3684 0.664482 10.0656C0.920336 9.76284 1.26735 9.59273 1.62918 9.59273H20.7292C21.091 9.59273 21.438 9.76284 21.6939 10.0656C21.9497 10.3684 22.0935 10.7791 22.0935 11.2073C22.0935 11.6355 21.9497 12.0462 21.6939 12.349C21.438 12.6517 21.091 12.8219 20.7292 12.8219H1.62918C1.26735 12.8219 0.920336 12.6517 0.664482 12.349C0.408629 12.0462 0.264893 11.6355 0.264893 11.2073ZM0.264893 19.8183C0.264893 19.3901 0.408629 18.9794 0.664482 18.6766C0.920336 18.3738 1.26735 18.2037 1.62918 18.2037H20.7292C21.091 18.2037 21.438 18.3738 21.6939 18.6766C21.9497 18.9794 22.0935 19.3901 22.0935 19.8183C22.0935 20.2465 21.9497 20.6572 21.6939 20.9599C21.438 21.2627 21.091 21.4328 20.7292 21.4328H1.62918C1.26735 21.4328 0.920336 21.2627 0.664482 20.9599C0.408629 20.6572 0.264893 20.2465 0.264893 19.8183Z" fill="black"/>
</svg>
